<svg xmlns="http://www.w3.org/2000/svg" viewBox="0 0 45 45" width="45" height="45">
  <path d="M 9 39 L 36 39 L 36 36 L 9 36 L 9 39 z" fill="#ffffff" stroke="#000000" stroke-width="1.5" stroke-linecap="round"/>
  <path d="M 12 36 L 12 32 L 33 32 L 33 36 L 12 36 z" fill="#ffffff" stroke="#000000" stroke-width="1.5" stroke-linecap="round"/>
  <path d="M 11 14 L 11 9 L 15 9 L 15 11 L 20 11 L 20 9 L 25 9 L 25 11 L 30 11 L 30 9 L 34 9 L 34 14" fill="#ffffff" stroke="#000000" stroke-width="1.5" stroke-linecap="round"/>
  <path d="M 34 14 L 31 17 L 31 29.5 L 14 29.5 L 14 17 L 11 14" fill="#ffffff" stroke="#000000" stroke-width="1.5" stroke-linecap="round"/>
  <path d="M 31 17 L 31 29.5" fill="none" stroke="#000000" stroke-width="1"/>
  <path d="M 14 17 L 14 29.5" fill="none" stroke="#000000" stroke-width="1"/>
</svg>
